<?xml version="1.0" encoding="UTF-8"?>
<svg width="16px" height="19px" viewBox="0 0 16 19" version="1.1" xmlns="http://www.w3.org/2000/svg"
     xmlns:xlink="http://www.w3.org/1999/xlink">
    <!-- Generator: Sketch 49.3 (51167) - http://www.bohemiancoding.com/sketch -->
    <title>icon/delete</title>
    <desc>Created with Sketch.</desc>
    <defs></defs>
    <g id="R04" stroke="none" stroke-width="1" fill="none" fill-rule="evenodd">
        <g id="Order-Details---Edit-Borrower-Info" transform="translate(-1136.000000, -490.000000)" fill="#E56344">
            <g id="icon/delete" transform="translate(1132.000000, 487.000000)">
                <g id="noun_862233_cc" transform="translate(4.800000, 2.880000)">
                    <path d="M5.62957317,0.225176171 C5.02344829,0.225176171 4.50365854,0.707846768 4.50365854,1.35109081 L4.50365854,2.02663959 L0.900731707,2.02663959 C0.409517671,2.02663959 0,2.43615275 0,2.92737129 L0,5.17920056 C0,5.6704191 0.409517671,6.07993227 0.900731707,6.07993227 L1.35109756,6.07993227 L1.35109756,17.3390899 C1.35109756,17.8302814 1.76061523,18.2398216 2.25182927,18.2398216 L12.159878,18.2398216 C12.6510921,18.2398216 13.0606098,17.8303039 13.0606098,17.3390899 L13.0606098,6.07993227 L13.5109756,6.07993227 C14.0021896,6.07993227 14.4117073,5.6704191 14.4117073,5.17920056 L14.4117073,2.92737129 C14.4117073,2.43615275 14.0021896,2.02663959 13.5109756,2.02663959 L9.90804878,2.02663959 L9.90804878,1.35109081 C9.90804878,0.707828753 9.38823651,0.225176171 8.78213415,0.225176171 L5.62957317,0.225176171 Z M5.62957317,1.12590788 L8.78213415,1.12590788 C8.85648955,1.12590788 9.00731707,1.24584481 9.00731707,1.35109081 L9.00731707,2.02663959 L5.40439024,2.02663959 L5.40439024,1.35109081 C5.40439024,1.24582679 5.55519525,1.12590788 5.62957317,1.12590788 Z M0.900731707,2.92737129 L13.5109756,2.92737129 L13.5109756,5.17920056 L0.900731707,5.17920056 L0.900731707,2.92737129 Z M2.25182927,6.07993227 L12.159878,6.07993227 L12.159878,17.3390899 L2.25182927,17.3390899 L2.25182927,6.07993227 Z M4.50365854,7.88139568 C4.25492148,7.88139568 4.05329268,8.08302448 4.05329268,8.33176154 L4.05329268,15.0872606 C4.05329268,15.3359977 4.25492148,15.5376265 4.50365854,15.5376265 C4.7523956,15.5376265 4.95402439,15.3359977 4.95402439,15.0872606 L4.95402439,8.33176154 C4.95402439,8.08302448 4.7523956,7.88139568 4.50365854,7.88139568 Z M7.20585366,7.88139568 C6.9571166,7.88139568 6.7554878,8.08302448 6.7554878,8.33176154 L6.7554878,15.0872606 C6.7554878,15.3359977 6.9571166,15.5376265 7.20585366,15.5376265 C7.45459072,15.5376265 7.65621951,15.3359977 7.65621951,15.0872606 L7.65621951,8.33176154 C7.65621951,8.08302448 7.45459072,7.88139568 7.20585366,7.88139568 Z M9.90804878,7.88139568 C9.65931172,7.88139568 9.45768293,8.08302448 9.45768293,8.33176154 L9.45768293,15.0872606 C9.45768293,15.3359977 9.65931172,15.5376265 9.90804878,15.5376265 C10.1567858,15.5376265 10.3584146,15.3359977 10.3584146,15.0872606 L10.3584146,8.33176154 C10.3584146,8.08302448 10.1567858,7.88139568 9.90804878,7.88139568 Z"
                          id="Shape" fill-rule="nonzero"></path>
                </g>
            </g>
        </g>
    </g>
</svg>