<?xml version="1.0" encoding="utf-8"?>
<!-- Generator: Adobe Illustrator 22.0.1, SVG Export Plug-In . SVG Version: 6.00 Build 0)  -->
<svg version="1.1" id="logo" xmlns="http://www.w3.org/2000/svg" xmlns:xlink="http://www.w3.org/1999/xlink" x="0px" y="0px"
	 viewBox="0 0 1125 504" style="enable-background:new 0 0 1125 504;" xml:space="preserve">
<g id="SPRUCE">
	<defs>
		<path id="SVGID_1_" d="M939,346.2v-34.1h68.9v-25.9H939v-38.7h82.3v-26.8H909V373h116.9v-26.8H939z M811,345.6
			c-26.6,0-48.4-19.9-48.4-48.6c0-29.2,21.8-48.6,48.4-48.6c16,0,30.2,7.8,38.9,20.1l24-20.3C859,230.4,836.5,219,811,219
			c-44.3,0-80.4,35-80.4,78s36.1,77.8,80.4,77.8c25.5,0,48-11.2,62.9-28.9l-24-20.3C841.3,337.8,827,345.6,811,345.6z M694.7,220.7
			h-30.2v83.2c0,28.5-12.7,42.3-37.4,42.3c-24.2,0-36.9-13.6-36.9-42.3v-83.2h-30.2v91.2c0,35.2,23.1,62.9,67.2,62.9
			c44.3,0,67.6-27.9,67.6-62.9V220.7z M428.3,247.5h31.3c24,0,32.2,14.7,32.2,30.5c0,17.9-11.7,30.5-36.3,30.5h-27.2V247.5z
			 M491.8,373h36.9l-35.4-45.4c20.1-8.6,30.9-25.9,30.9-52.1c0-28.5-15.1-54.9-59.6-54.9h-67.2V373h30.9v-39.1h28.3
			c1.9,0,4.1,0,5.8-0.2L491.8,373z M272.2,308.2v-60.7H299c24,0,32.2,14.7,32.2,30.5c0,17.9-11.7,30.2-36.3,30.2H272.2z
			 M241.3,220.7V373h30.9v-39.1h25.7c38.7,0,65.7-16.6,65.7-58.3c0-28.5-15.1-54.9-59.6-54.9H241.3z M149.6,282.7
			c-22.9-5.2-33.7-9.7-33.7-20.5c0-9.5,8.6-16.4,24.2-16.4c14.3,0,33,4.5,46.4,10.2l12.5-24.6c-14.9-6.5-35.2-12.3-58.3-12.3
			c-34.8,0-56.2,19-56.2,45.8c0,30,25.3,38.9,56.6,46c22.2,5.2,32.4,9.7,32.4,20.1c0,11.2-9.9,17.3-26.6,17.3
			c-19,0-33-1.9-53.1-11.7l-11.2,24c24.2,12.1,37.4,14.5,63.3,14.5c35.4,0,59-17.3,59-46.7C204.9,300.4,182.4,290.1,149.6,282.7z"/>
	</defs>
	<use xlink:href="#SVGID_1_"  style="overflow:visible;fill-rule:evenodd;clip-rule:evenodd;fill:#5D5D5D;"/>
	<clipPath id="SVGID_2_">
		<use xlink:href="#SVGID_1_"  style="overflow:visible;"/>
	</clipPath>
</g>
<g id="chevron">
	<defs>
		<polygon id="SVGID_3_" points="560,160 627.5,124 695,160 695,190 627.5,154 560,190 		"/>
	</defs>
	<use xlink:href="#SVGID_3_"  style="overflow:visible;fill-rule:evenodd;clip-rule:evenodd;fill:#63B500;"/>
	<clipPath id="SVGID_4_">
		<use xlink:href="#SVGID_3_"  style="overflow:visible;"/>
	</clipPath>
</g>
</svg>
